<svg xmlns="http://www.w3.org/2000/svg" viewBox="0 0 100 32">
  <rect width="100" height="32" rx="4" fill="#1A1F71"/>
  <path d="M40.5 21.5h-3.2l2-12.3h3.2l-2 12.3zm-6.8-12.3l-3 8.4-.4-1.8-.3-1.4s-.1-.4-.3-.8c-.2-.5-.5-1-.5-1-.1-.2-.2-.4-.3-.5-.5-.9-1.2-1.8-2.1-2.4-.5-.4-1.1-.7-1.7-1h4.8l.3 1.4.6 3.1 2.9-4.5h3.2l-3.2 12.3h-3.2l2.2-7.8zm31.8 8.2l1.7-4.5.9 4.5h-2.6zm3.6 4.1h3l-2.6-12.3h-2.6c-.6 0-1.1.4-1.3.9l-4.6 11.4h3.2l.6-1.8h3.9l.4 1.8zm-11.2-4c0-3.2-4.4-3.4-4.4-4.8 0-.4.4-.9 1.3-.9.7 0 1.5.1 2.1.4l.4-2.2c-.6-.2-1.4-.4-2.4-.4-2.5 0-4.3 1.3-4.3 3.2 0 1.4 1.2 2.2 2.2 2.6 1 .5 1.3.8 1.3 1.2 0 .7-.8 1-1.5 1-.9 0-1.8-.2-2.5-.6l-.4 2.2c.7.3 1.6.5 2.6.5 2.7 0 4.4-1.3 4.4-3.3h.2z" fill="#fff"/>
</svg>